<?xml version="1.0" encoding="utf-8"?>
<!-- Generator: Adobe Illustrator 23.0.0, SVG Export Plug-In . SVG Version: 6.00 Build 0)  -->
<svg version="1.1" id="Layer_1" xmlns="http://www.w3.org/2000/svg" xmlns:xlink="http://www.w3.org/1999/xlink" x="0px" y="0px"
	 viewBox="0 0 55.5 54.1" style="enable-background:new 0 0 55.5 54.1;" xml:space="preserve">
<style type="text/css">
	.st0{fill:#87AEC1;}
	.st1{fill:#D0EAF7;}
	.st2{fill:#3FA9F5;}
	.st3{display:none;fill:#3FA9F5;}
</style>
<title>Asset 1</title>
<g>
	<g id="Layer_1-2">
		<circle class="st0" cx="27.8" cy="27.1" r="21.5"/>
		<path class="st1" d="M32.9,37.9c-1.8,0.9-3.8,1.4-5.9,1.3c-5.4,0-10-4-10-10.3c0-6.8,4.7-12.7,12-12.7c5.1-0.3,9.4,3.6,9.6,8.7
			c0,0.3,0,0.6,0,0.9c0,5-2.8,7.9-5.9,7.9c-1.3,0-2.5-0.9-2.5-2.9h-0.1c-0.9,1.8-2.7,2.9-4.6,2.9c-1.9,0-3.6-1.5-3.6-4.2
			c0-4.3,3.5-7.8,7.8-7.8c0,0,0,0,0.1,0c1.2,0,2.4,0.2,3.5,0.7l-1.1,6c-0.5,2.5-0.1,3.7,1,3.7c1.7,0,3.6-2.2,3.6-6
			c0-4.8-2.9-8.2-8-8.2c-5.4,0-9.9,4.3-9.9,11c0,5.5,3.6,8.9,8.5,8.9c1.7,0,3.5-0.4,5-1.2L32.9,37.9z M31.1,23.6
			c-0.5-0.2-1.1-0.2-1.6-0.2c-2.9,0-5.3,2.7-5.3,5.9c0,1.5,0.7,2.5,2.2,2.5c1.9,0,3.7-2.4,4-4.5L31.1,23.6z"/>
		<g>
			
				<image style="overflow:visible;opacity:0;" width="85" height="57" xlink:href="42795098.png"  transform="matrix(1 0 0 1 -3.3 19.1033)">
			</image>
			<g>
				<path class="st2" d="M53.8,27.6c-0.3,14.1-11.8,25.5-26,25.5c-14.2,0-25.8-11.4-26-25.5h-1C1,42.2,13,54.1,27.7,54.1
					c14.7,0,26.8-11.9,27-26.5H53.8z"/>
			</g>
		</g>
	</g>
</g>
<g>
	<path class="st3" d="M1.7,26.6C2,12.4,13.6,1,27.7,1c14.2,0,25.8,11.4,26,25.5h1C54.5,11.9,42.5,0,27.7,0C13,0,1,11.9,0.7,26.6H1.7
		z"/>
</g>
</svg>
