<?xml version="1.0" encoding="utf-8"?>
<!-- Generator: Adobe Illustrator 23.0.0, SVG Export Plug-In . SVG Version: 6.00 Build 0)  -->
<svg version="1.1" id="Layer_1" xmlns="http://www.w3.org/2000/svg" xmlns:xlink="http://www.w3.org/1999/xlink" x="0px" y="0px"
	 viewBox="0 0 136.4 51.4" style="enable-background:new 0 0 136.4 51.4;" xml:space="preserve">
<style type="text/css">
	.st0{opacity:0.49;}
	.st1{fill:url(#SVGID_1_);}
	.st2{fill:url(#SVGID_2_);}
	.st3{fill:#FFFFFF;}
</style>
<g>
	<g id="Layer_1-2">
		<g class="st0">
			<radialGradient id="SVGID_1_" cx="68.3951" cy="33.048" r="48.3678" gradientUnits="userSpaceOnUse">
				<stop  offset="0.4988" style="stop-color:#00487F"/>
				<stop  offset="1" style="stop-color:#08B0F2"/>
			</radialGradient>
			<path class="st1" d="M68.4,16.7c26.6,0,50.1,13.8,63.5,34.7h2.4c-13.7-22-38.1-36.7-65.9-36.7c-27.8,0-52.2,14.7-65.9,36.7h2.4
				C18.3,30.5,41.8,16.7,68.4,16.7z"/>
		</g>
		<linearGradient id="SVGID_2_" gradientUnits="userSpaceOnUse" x1="54.1015" y1="16.3489" x2="82.9259" y2="16.3489">
			<stop  offset="0" style="stop-color:#08B0F2"/>
			<stop  offset="1" style="stop-color:#00487F"/>
		</linearGradient>
		<circle class="st2" cx="68.5" cy="16.3" r="14.4"/>
		<path class="st3" d="M70.9,17l-12.5,0c-0.4,0-0.7-0.3-0.7-0.7c0-0.4,0.3-0.7,0.7-0.7l12.5,0c0.4,0,0.7,0.3,0.7,0.7
			C71.6,16.7,71.3,17,70.9,17z"/>
		<path class="st3" d="M67.5,20.5c-0.2,0-0.3-0.1-0.5-0.2c-0.3-0.3-0.3-0.7,0-0.9c0,0,0,0,0,0l3-3l-3-3c-0.3-0.3-0.3-0.7,0-0.9
			c0,0,0,0,0,0c0.3-0.3,0.7-0.3,0.9,0l3.5,3.5c0.3,0.3,0.3,0.7,0,0.9l-3.5,3.5C67.8,20.4,67.6,20.4,67.5,20.5z"/>
		<path class="st3" d="M68.1,25.9c-3.9,0-7.4-2.4-8.9-6.1c-0.2-0.3-0.1-0.7,0.2-0.9c0.3-0.2,0.7-0.1,0.9,0.2c0,0.1,0.1,0.2,0.1,0.3
			c1.7,4.2,6.4,6.3,10.7,4.6c4.2-1.7,6.3-6.4,4.6-10.7c-1.7-4.2-6.4-6.3-10.7-4.6c-2.1,0.8-3.8,2.5-4.6,4.7
			c-0.1,0.3-0.5,0.6-0.8,0.5c-0.3-0.1-0.6-0.5-0.5-0.8c0,0,0-0.1,0.1-0.1c1.9-4.9,7.4-7.3,12.3-5.4c4.9,1.9,7.3,7.4,5.4,12.3
			C75.6,23.5,72,25.9,68.1,25.9z"/>
	</g>
</g>
</svg>
