<svg xmlns="http://www.w3.org/2000/svg" viewBox="0 0 68.08 67.3"><defs><style>.cls-1{fill:#049ad2;}.cls-2{fill:#f97203;}.cls-3{fill:#ccc;}.cls-4{fill:#045d7c;opacity:0.79;isolation:isolate;}.cls-5{fill:#054351;}</style></defs><title>cloudZF_Blue_Small</title><g id="Layer_2" data-name="Layer 2"><g id="Layer_1-2" data-name="Layer 1"><g id="Layer_1-2-2" data-name="Layer 1-2"><rect class="cls-1" width="22.4" height="22.4"/><rect class="cls-2" x="44.9" width="22.4" height="22.4"/><rect class="cls-1" y="22.4" width="22.4" height="22.4"/><rect class="cls-3" x="22.5" y="22.4" width="22.4" height="22.4"/><rect class="cls-1" y="44.9" width="22.4" height="22.4"/><rect class="cls-1" x="22.5" y="44.9" width="22.4" height="22.4"/><rect class="cls-3" x="44.9" y="44.9" width="22.4" height="22.4"/><path class="cls-4" d="M64.5,5.5a2.4,2.4,0,0,0-2.1-.3h-.2c-4.2,1-8.4,2.1-12.6,3.1a2.39,2.39,0,0,0-1.8,1.1,1.14,1.14,0,0,0-.3.8,2.12,2.12,0,0,0,1.2,2.5l1.3.9,2.7,1.8L32.1,46.1,18.3,36.9a3.63,3.63,0,0,0-2.8-.6,4,4,0,0,0-2.4,1.6L.8,56.3a3.82,3.82,0,0,0,1,5.2l.8.6a3.47,3.47,0,0,0,2.8.6,4,4,0,0,0,2.4-1.6l9.7-14.4,13.8,9.2a3.47,3.47,0,0,0,2.8.6,4,4,0,0,0,2.4-1.6L59.6,20.1l3.9,2.6a2.88,2.88,0,0,0,1.9.6,2.35,2.35,0,0,0,1-.5,2.65,2.65,0,0,0,.5-.6,3.26,3.26,0,0,0,.4-2.3c-.4-2.8-.8-5.5-1.3-8.3l-.6-4.2A2.32,2.32,0,0,0,64.5,5.5Z"/><path class="cls-5" d="M55.4,27.5a4.8,4.8,0,1,0-4.8-4.8A4.8,4.8,0,0,0,55.4,27.5Z"/><path class="cls-5" d="M67.9,43.2,63,30.5a2.72,2.72,0,0,0-2.5-1.7H57.9a2.73,2.73,0,0,0-1.9.8l1.2,9.1-1.8,1.7-1.9-1.6,1.2-9.1a2.56,2.56,0,0,0-1.9-.8H50.5L35.2,25.6a2.71,2.71,0,0,0-1.1,5.3l15.6,3.2c.2,0,.3.1.5.1V46.6l-1,17.6A2.61,2.61,0,0,0,51.7,67h.2a2.72,2.72,0,0,0,2.7-2.5l.8-15.2.9,15.1A2.72,2.72,0,0,0,59,66.9h.2a2.67,2.67,0,0,0,2.5-2.8l-1-17.6V39.1l2.4,6.1a2.62,2.62,0,0,0,3.5,1.5A2.79,2.79,0,0,0,67.9,43.2Z"/></g></g></g></svg>