<svg xmlns="http://www.w3.org/2000/svg" viewBox="0 0 371.92 91.91"><defs><style>.cls-1{fill:#f36f40;}.cls-2{fill:#fff;}.cls-3{fill:#f97203;}.cls-4{fill:#ccc;}</style></defs><title>Asset 2</title><g id="Layer_2" data-name="Layer 2"><g id="Layer_1-2" data-name="Layer 1"><path class="cls-1" d="M371.91,52.76s0,0-.07.05a.18.18,0,0,0,0,.07Z"/><path class="cls-1" d="M371.31,53c-.09.09-.15.29,0,.37,0-.2.08-.17.14-.35s.16-.06.16,0,.12-.08.16-.14a.7.7,0,0,0-.4.23S371.31,53,371.31,53Z"/><path class="cls-1" d="M361.82,54.9l.12.12A.32.32,0,0,0,361.82,54.9Z"/><path class="cls-1" d="M355.74,55.79s0-.22-.09-.37A.91.91,0,0,0,355.74,55.79Z"/><path class="cls-1" d="M353.92,54.25a.55.55,0,0,1,.11.1C353.94,54.2,353.88,54.12,353.92,54.25Z"/><path class="cls-1" d="M361.82,54.9l-.32-.34C361.66,55,361.7,54.83,361.82,54.9Z"/><path class="cls-1" d="M370.4,54.27a.32.32,0,0,0,0-.14l-.05.09Z"/><path class="cls-1" d="M364,53.44h0L364,53Z"/><path class="cls-1" d="M366,53a5.1,5.1,0,0,0,.29.92,1.08,1.08,0,0,1-.08-.47Q366.16,53.3,366,53Z"/><path class="cls-1" d="M369.55,53.32l0,0S369.56,53.3,369.55,53.32Z"/><path class="cls-1" d="M362.49,53.48l-.16-.33A2.53,2.53,0,0,0,362.49,53.48Z"/><path class="cls-1" d="M315.75,83.82l0,0S315.73,83.82,315.75,83.82Z"/><polygon class="cls-1" points="313 83.86 313.02 83.84 313.03 83.83 313 83.86"/><path class="cls-1" d="M351.2,52.82l0,0C351.19,52.67,351.18,52.7,351.2,52.82Z"/><path class="cls-1" d="M335.71,60.51c1,1.45.79,2.14,2,3.71A27.15,27.15,0,0,0,335.71,60.51Z"/><path class="cls-1" d="M370.35,54.27a.23.23,0,0,1-.07.07A.12.12,0,0,0,370.35,54.27Z"/><path class="cls-1" d="M337.67,64.22h0l.11.15Z"/><path class="cls-1" d="M347.41,55c.15.28.27.49.39.7A7.67,7.67,0,0,0,347.41,55Z"/><path class="cls-1" d="M351.56,56.2l-.17-.18C351.49,56.15,351.53,56.19,351.56,56.2Z"/><path class="cls-1" d="M347,57.87c-.11-.12-.23-.34-.18-.09l.12.19C346.82,57.74,346.79,57.62,347,57.87Z"/><path class="cls-1" d="M345.37,58.54l.2.33v-.11Z"/><path class="cls-1" d="M321.23,82.81a8,8,0,0,1-.51-.64C321.08,82.69,320.94,82.92,321.23,82.81Z"/><path class="cls-1" d="M370.34,54.12a.27.27,0,0,1,0,.15l0-.05A.23.23,0,0,0,370.34,54.12Z"/><path class="cls-1" d="M353.35,71.09,353,71C353.15,71.11,353.27,71.14,353.35,71.09Z"/><path class="cls-1" d="M333.05,79.18l.05.19S333.13,79.35,333.05,79.18Z"/><path class="cls-1" d="M352.48,71.66a10.43,10.43,0,0,0-.71-1.09L352,71Z"/><path class="cls-1" d="M320.71,82.16h0Z"/><path class="cls-1" d="M319.84,84c.31,0-.37-.78-.61-1.23.17-.3.54.55.93,1,.07-.23-.28-1-.12-1a1.52,1.52,0,0,1,.26.37c-.25-.75.61-.15.22-1.17a1.77,1.77,0,0,1,.19.23c-.35-.47-.67-1-.89-1.3.09-.06-.21-.71.24-.09-.07,0,.09.27.19.48l-.07-.32c.71.88.05.38.49,1,.05-.36-.21-1.26.13-1.06.66,1-.2.46.58,1.22l-.51-.27c1.16,1.39-.24-.06,1,1.44.57.22.12-.56.69-.34-.27-.57-.55-.81-.83-1.38-.16-1.2,2.08,2.47,1.59,1-.36-.73-1.2-2.12-.47-1.48l.7,1.27c.44,0-.95-1.87,0-1.13.26.53,0,.51.15.64.89.95-.29-.77-.12-.83l.78,1.14c.27-.26.13-1.26.38-1.64a5.48,5.48,0,0,0,.72,1.15c.13-.78,1.2-.19,2.23.53L327.06,81a2.84,2.84,0,0,1,.52.77c.48.4-.47-.77-.67-1.27.06-.12.58.65.73,1-.28-1.11-.45-2.61.74-1.36l.17.4c.6.45-1.33-2.78-.33-1.66l.09.25c.94.37.8-1.18,2.53.78-1.14-2.07,1.14.72-.56-2.18a19.16,19.16,0,0,0,2.47,2.68c.21.1-.91-1.92-.95-2.3l.93,1.57L332,78l1.23,1.84-.09-.46a5.3,5.3,0,0,1-.81-1.12c-.2-.82,1.2.89,1.7,1.72l-.28-1.57a6.85,6.85,0,0,1,.59,1.36c-.69-1.77,1.06,1.7.43.08-.25-.36-.55-1-.74-1.32.71.94,1,.85,1,.34L335.6,80c.57.15.51-.86,1-1a11.39,11.39,0,0,1-1.6-2.8l1.1,1.79a19.11,19.11,0,0,1-1.15-2.07,11.23,11.23,0,0,1,1.54,2.65l-.16-.71c.32.53.44.84.82,1.54-.57-1.17,1.4,1.71.39-.32l.32.55c.45-.15.28-.88.58-1.11a21.2,21.2,0,0,1-1.21-2.68c.55.4,1.56,1.56,1.79,1.29a16.77,16.77,0,0,0-1.17-2.45c.86,1.49,1.09,1.21,1.53,2.37.24-.41.31-.51.08-2a11.19,11.19,0,0,1-.86-1.38c-.05-.29.55.55.94,1.29l.07.17c-.75-2.57,3.66,3.92,2.31.51l.06.17-.49-1.9c.34.17.52,1.23,1.19,2.13-1-2.83.93,0,.36-1.91,2.78,4.51.86-.85,2.83,1.93L345.22,75c-.47-1.13.45.56.66.78a14.08,14.08,0,0,1-.88-1.57c.15-1.77,2.6.7,3.95,1.21.46.12-2.75-5.8-1-3.39l.93,2.11c-.62-2.82,1.32-.66.89-3.09a5.84,5.84,0,0,1,.44,1.13c.87,1.39.51-.22-.08-1.42a16.52,16.52,0,0,1,.92,1.65c.56.78-.61-2.07.19-.66a2.47,2.47,0,0,1,.23.63c-.27-.76.48-.07-.44-1.7.63.66.07-1,.74-.13-.8-1.94.83.65-.42-2,1.32,2.72,1.47,1.93,1,.57.35.85.54.77,1,1.93.14-.14,0-.74-.65-2.1,1.85,3-.63-2.94,1.51,1a13.45,13.45,0,0,1-.05-3.85c1.21,2.58-.37.56.95,3.27-.11-1.36-.91-3.7-.2-3.35a6.21,6.21,0,0,1,.63,1.6c-.08-1.31.9-.32.63-1.92a3.8,3.8,0,0,1,.24.72c0-.12.33.25-.2-.86l.07.35a33.41,33.41,0,0,1-1.66-4.41c1.36,3.25.76.58,2.41,4.7a7.82,7.82,0,0,0-.58-1.53,4.51,4.51,0,0,1,.71,1.46c0-.77-.65-1.87-.4-2,.24.53.29.76.55,1.4-.36-1.11-.71-2.21-.3-1.89.13.32.35.71.28.74.27-.39-.62-3,.2-2.3.89,2.25.46.63,1.34,2.5l-.05-.7-.5-.85c.19-.09-.25-1.53.18-1l.21.84.18-.56-.51-.57c-.24-1-1.07-2.31-.58-1.93,0,.21.2-.07.77.93h0c-.16-.62-.33-1.27,0-.9.29.55.85,2,1,2.34-.57-1.53.24-.68-.34-2.29.13.38.53,1.29.62,1.47l-.44-1.22a4.64,4.64,0,0,1,.65,1.23c.34.05-1.05-2.12-.33-1.37,0,.11.11.28.14.48.51.29.27-1.06.8-.68.8,1.58-.07.56.64,1.89.24-.61,0-2.47.53-2.33l-.15-.12c-.88-2.19.76.89.51-.25a5.76,5.76,0,0,0,.36,1c.4.15.3-.89.45-1.74l.17.54c.34.35.51,0,.78.1a3.42,3.42,0,0,0-.39-1.16c.85,1.2.92.63,1,.09s.15-1.08.79-.25c-.06,0,0,.45.06.43l.23-.65a3.79,3.79,0,0,0-.53-.86c-.12-.43-.13-.8,0-.84a2.68,2.68,0,0,0,.68,1.39c-.1-.2-.16-.44-.26-.64.7,1-.5-1.32.12-.69l.12.34c0-.23,0-.7.12-.66.34.67,0,.38.26,1,.14-.15-.22-1.48.22-.87,0,.22-.1.27-.09.5.49.71.42.49.59.54h0l.41.15-.15-.16c-.25-.9-.17-1-.06-1.08s.26-.08.21-.64c.1,1.07.17.57.41,1.22.15.14.32.25.37.45-.08-.59.35.21.23-.64.09.18.14-.08.3.4.09-.29-.17-.28-.25-.53,0-.41.22-.31.44-.29s.42,0,.46-.5c.2-.51.09-1,.33-1.28.18.13.08.46.08.46.23.07.34,0,.45-.25,0,.1.06.16.15.23.1-.12-.05-.38.16-.35a1.88,1.88,0,0,1,0,.42,3.07,3.07,0,0,1,.31-.6c.08.08,0,.23,0,.36.13-.2.36-.45.36-.61l-.13,0c.06,0,.08.1.05.16-.09.23-.22.09-.26,0l.09-.11c-.12-.13-.23-.09-.33,0s-.18.33-.3.39l-.05-.43a4,4,0,0,0-.11.44c-.09-.08-.22-.32-.13-.42-.25-.16-.08.21-.33,0a.08.08,0,0,1,0-.09l-.12.2c0-.12-.16-.35,0-.3-.43-.25-.33.52-.62.13V53.3c-.34.31.13.44,0,1.1l-.69-1.12.16.51c-.05,0-.15,0-.22-.23,0,.4.12.21.16.58-.4-.43-.45.46-.88-.46.11.47.34.28.25.67-.48-1-.18.27-.56-.15-.18-.6.13-.33-.27-.79.28,1-.47-.14-.56.07.33.84-.22.43-.37.8-.1-.3-.72-.37-1.13-.69l-.06-.17c.36,1,0,.9-.07,1.17a3.36,3.36,0,0,1-.34-1.19l-.19,0a1.12,1.12,0,0,1,.06.7l-.3-.83c-.24.07-.08,1.08-.64.57.34.84,1.19,2.18,1.13,2.87a6.47,6.47,0,0,1-.53-1.42c0,.07.06.41-.08.24l-.19-.8c-.28-.29.19.65.06.62-.27-.64-.28-.43-.48-1,0-.07.21.24.15,0a2.29,2.29,0,0,1-.76-.92,2.7,2.7,0,0,1,.32,1c-.22.11-.42-.78-.72-1.1.14.48-.22,0,.21,1-.07,0-.29-.46-.44-.74.07.48-.53.26.1,1.36l.06.07v0h0c.07,1.22-1.1-.37-1.29.22l-.17-.39c0,.52-.42.42-.2,1.34a3.43,3.43,0,0,1-.67-1.18c-.05.36.14.84-.43.22-.13-.78-.35-.63,0-.58-.4-.29-.76-1-.5.26-.39-1.11-.8-1.34-.77-1l.52.75c-.06.19-.21.12-.37.06l-.58-1.49c-.65-.84-.55,0-.48.63s.1,1.22-.8-.31c.35,1.12.61.69,1.06,2a23.79,23.79,0,0,1-1.64-2.32c-.71-.82.75,2.39.16,1.88a9.74,9.74,0,0,1,1,2.71,8.81,8.81,0,0,1-1.44-2.86c0-.06.14.12.23.31a2.15,2.15,0,0,0-.41-1.1l.23.58c-.38-.56-.67-.42-1-1.4a2.09,2.09,0,0,0,.63,1.25c-.68-.77-.47.1-1-.4a4.76,4.76,0,0,1,.52,1c-.78-.62.33,1.2.16,1.57-.59-.88-1-2.24-.89-1.37a6.76,6.76,0,0,1-.94-2.13c.27,1.26-.88-.65-1.15-.85l-.08-.53c.05.32,0,.32-.11.34l.67,1.23a1.67,1.67,0,0,1-.51-.71c.3.84,1,2.06,1.38,3.24-.41-.61,0,.8-.83-.87.62.47-.83-1.68-.65-2,0,.22,0,.23-.23,0a1.62,1.62,0,0,1-.17-.45c-1.05-1.43.73,1.94.36,2-.4-1-.93-1.8-.89-1.58a8.27,8.27,0,0,1,1,2.36c-.58-.68,0,.64-.14.59l.3.31c.41,1,.24.9.23,1.26-.36-.75-.1-.57-.31-.89.64,1.79-1.22-1.65-.92-.41-.42-.63-.88-1.85-1.2-2.28.34,1.37-.94-1.28-.72-.13a7.75,7.75,0,0,1,1,2.37l0-1.1.62,2.05c.15,0-.1-1,.09-.75a6.31,6.31,0,0,0,.82,1.89c-1.14-1.94.19,1.32-.67,0l-1.58-3.35c-1.05-1.4.23,1.92-.59,1.23l.42.54c.59,1.38-.17.29-.05.89a19.52,19.52,0,0,0-1.22-2.22c.42.85-.35,0,.72,2.35l-.92-1.45c-.65-.51,1.21,3.45.7,3.2A24,24,0,0,1,347,56.69c-.12,0-.32-.15.07.66-.42-.71.47,1.7-.17.62.21.54.79,1.77.63,1.73-.13-.23-.29-.58-.29-.58a11.84,11.84,0,0,0,.95,2.13c-2.14-3.55-.77.69-2.63-2.38a2.49,2.49,0,0,1-.29,1.2c-.16-.37-.3-.6-.19-.49-.85-1,1.55,3.53.6,2.44-1.15-1.88-.36-1.14-.83-1.83-2-3.95-.13.72-1.52-1.5l-.06-.26c-.86-1.28.34,1.7-.08,1.54,0,0-.16-.36-.3-.6a9.4,9.4,0,0,1,.87,3.67,17.25,17.25,0,0,0-1.17-2.46c0,.28,1.34,2.54,1.34,3.11a32.51,32.51,0,0,1-2-3.19l.18-.2c-1.25-2.15-.25.22-.57-.11l-.48-1c-.18.48,1.07,2.92.62,2.92l.42.72c1.05,2.51-.87-1.28-.14.62l-1.33-2.42a24.48,24.48,0,0,1,.78,3.18A37.75,37.75,0,0,1,340,60.12c-.14.05-.35.41.21,1.65-.07-.26-.32-.9-.07-.55.85,2,1.14,3.06.86,3.15-2.44-4.77-1.3-.85-3.42-4.43.47,2-1.3-.25-1.68.33,2.15,3.56-.09.19,1.95,3.93,0,.31-.07.27-.21,0l-1.57-2c-.68-1-.33-.89-.8-1.73-.42-.13-1-1.52-1.68-2.41.76,1.32.94,2,.52,1.55l1.14,1.6c.71,2.2-2-3-1.32-.76l-.52-1.24c.18.8-.72.42.72,3.5a9.5,9.5,0,0,1-.93-1.71c-.69-.15.73,3.77-.62,2.19l-.45-.91c.06.31.78,1.76.18.93a6.47,6.47,0,0,0-.53-.93c.13.34.64,1.7.25,1.25l-.46-1.05c-1.08-.86.68,2.85.65,3.67-1.44-2.56-2.24-3.15-2.64-3.44l-.2-.37c-.66.06.36,2.72.46,4-1.82-2.47-1.59-.41-2.88-1.52A10.5,10.5,0,0,1,328.13,67c-.39-.4.67,1.87-.58-.32l.06,0c-1.32-2.07-1.2-1.33-1.4-1.25l1.62,2.83c-1.41-1.87-1.46-1.25-1.47-.62s0,1.26-1.13-.38c.3.76.17.86.46,1.61l-.84-1.42c-.49-.11-.73-.15-.87.49l-.52-1c-.24.11,2.14,4.18,2,4.4l-1.27-2c-.32.32-1.69-1.07-.94,1a4.39,4.39,0,0,1-.49-1c-.19.09-1.36-.66.27,1.84-1-1.66-.43.18-.18,1L322.13,71c.8,1.68,1.05,2.09,1.09,2.69-.15-.11-.63-.9-.38-.66-.54-.46.55,1.22,0,.77l-.38-.8c-.22.06,0,.45.46,1.37.17.54-.51,0-1.16-1,.36.64.77,1.53.48,1.33a3.78,3.78,0,0,1-.4-.76c-.75-.47.35,1.62-.5.76a5.59,5.59,0,0,0-.43-.6c.24-.19.45-.3.49-.21a13.6,13.6,0,0,1-1.62-2.49c.34.92,1.09,2.75.64,2.48l-.23-.31,0-.12c-.1,0-.08.07,0,.27-.15-.1-.26-.17-.32-.13-.5-.74-.44-.18-.55-.12a8.83,8.83,0,0,0,1,1.64c-.06-.06-.06-.13,0-.23a.39.39,0,0,0,0-.14l.05.09a1.81,1.81,0,0,1,.17-.29c.26.59.45,1.08,0,.62l.88,1.7c-1-1.27-1.68-1.74-2.23-2.52a4.4,4.4,0,0,0,.51,2.86c.05.27-.39-.39-.58-.61s0-.23-.12-.49c.12.57-.34.63.32,1.74-.51-.3-.53-1.1-.68-.66l-.18-.36c-.78-.55-.53.38-.39,1.14s.2,1.41-.67.82a.92.92,0,0,1,.27.23c-.59-.06-.79.49-1.06.91a1.22,1.22,0,0,1-1.15.75c-.27,0-.06.41,0,.76l-.3-.36.11.64c0,.28-.3.17-.53.15s-.4.05-.42.44l.15.11c-.14.11-.33.47-.41.31,0,0,.05.17,0,.15l-.06-.08a2.56,2.56,0,0,1-.21.44c-.25.21-.13-.28-.4.16a1.31,1.31,0,0,1-.22.44c.05,0,.13-.13.15-.11l-.13.1s-.18,0,.3,0a.83.83,0,0,0,.28-.08l.14,0-.27,0a.34.34,0,0,0,.34-.06.47.47,0,0,0,.19.08.81.81,0,0,0,.17-.23c.1.09,0,.18.22.22.07-.12-.27-.18-.09-.29.21.08.25.2.34.06.07.07.07.13,0,.16s.39-.06.34-.27c.3.2.45-.15.72.26,0-.1,0-.37.15-.43.14.62.52-.06.92.64-.2-.6.52-.32.58-.77,0,.06.06.18,0,.15.22,0,.43.25.65.39-.4-.64-.22-.85-.37-1.32.66.62.41.85.9,1.47-.38-.55,0-.62-.38-1.1a3.79,3.79,0,0,1,.78.78c-.6-1,.06-.18-.2-.81.56.44.68.93.75.58A1,1,0,0,1,319.84,84Zm4.6-3.82v0l-.08.11A.69.69,0,0,0,324.44,80.22Zm.46-.2a.31.31,0,0,0-.23,0c-.24-.36-.46-.74-.4-.74A3.25,3.25,0,0,0,324.9,80Zm-5.39-6.54c0-.21.11,0,.25.16a.52.52,0,0,0,0,.24l.07.13C319.69,73.81,319.58,73.62,319.51,73.48Z"/><path class="cls-1" d="M320.24,74.9s0,.07,0,.09l.17.19-.17-.33Z"/><path class="cls-1" d="M362,55l0,0,.08.14Z"/><polygon class="cls-1" points="332.95 80.08 332.73 79.72 332.88 80.05 332.95 80.08"/><path class="cls-1" d="M365.82,57a1.08,1.08,0,0,0,.11.18A1,1,0,0,0,365.82,57Z"/><path class="cls-1" d="M366.9,56.53l.24.14A.71.71,0,0,0,366.9,56.53Z"/><path class="cls-1" d="M367.79,56.28,367.7,56h0Z"/><path class="cls-1" d="M356.44,66.46a.14.14,0,0,0,0,.09C356.51,66.9,356.5,66.75,356.44,66.46Z"/><path class="cls-1" d="M358.56,60.77c.07.27.14.53.17.71S358.91,61.54,358.56,60.77Z"/><path class="cls-1" d="M353.39,71.1v0l0,0Z"/><path class="cls-1" d="M358.55,61.56c.19.23.21.14.18-.08C358.64,61.42,358.51,61.32,358.55,61.56Z"/><path class="cls-1" d="M371,53.66l0,0a0,0,0,0,0,0,0Z"/><path class="cls-1" d="M371.07,53.61l0-.06S371.07,53.58,371.07,53.61Z"/><path class="cls-1" d="M371.18,53.44l-.07.11A.19.19,0,0,0,371.18,53.44Z"/><path class="cls-1" d="M370,54.45l0,.12S370.06,54.5,370,54.45Z"/><path class="cls-1" d="M369.76,54.74c.08,0,.28.1.34-.07l0-.1C370.1,54.79,369.74,54.48,369.76,54.74Z"/><path class="cls-1" d="M367.57,53.45l.37.08c-.13-.18-.31-.43-.18-.49C367.12,52.51,368,53.45,367.57,53.45Z"/><path class="cls-1" d="M366.46,53.3c.13-.13-.14-.34-.19-.48A.43.43,0,0,0,366.46,53.3Z"/><path class="cls-1" d="M359.44,54.75,359,53.69C358.93,53.87,359.17,54.1,359.44,54.75Z"/><polygon class="cls-1" points="360.72 60.98 361.13 61.62 360.73 60.55 360.72 60.98"/><polygon class="cls-1" points="356.32 53.03 356.31 52.85 356.27 53.32 356.32 53.03"/><path class="cls-1" d="M344.91,56.92l1,1.89C345.8,58.43,344.77,56.29,344.91,56.92Z"/><path class="cls-1" d="M341.19,61c-.55-1-1-1.51-.59-.51C340.77,60.59,341.27,61.3,341.19,61Z"/><polygon class="cls-1" points="326.39 66.32 326.14 65.69 326.27 66.29 326.39 66.32"/><path class="cls-2" d="M46,91.91a46,46,0,1,1,46-46A46,46,0,0,1,46,91.91Zm0-88A42.1,42.1,0,1,0,88.05,46,42.14,42.14,0,0,0,46,3.86Z"/><rect class="cls-2" x="19.59" y="19.52" width="17.35" height="17.35"/><rect class="cls-3" x="54.3" y="19.52" width="17.35" height="17.35"/><rect class="cls-2" x="19.59" y="36.68" width="17.35" height="17.35"/><rect class="cls-4" x="36.95" y="36.78" width="17.35" height="17.35"/><rect class="cls-2" x="19.59" y="53.85" width="17.35" height="17.74"/><rect class="cls-2" x="36.95" y="54.23" width="17.35" height="17.35"/><rect class="cls-4" x="54.3" y="54.23" width="17.35" height="17.35"/><path class="cls-2" d="M126.2,67.66c-1.21,0-3-.06-5.41-.19s-4.21-.18-5.41-.18c-1.72,0-4.27,0-7.68-.06s-6-.06-7.67-.06c-.73,0-1.15-.24-1.25-.7,0-1.31-.25-3.25-.62-5.81A15.78,15.78,0,0,1,97.8,59q0-.13,7.49-11.84t7.49-12.58c0-.33-.27-.49-.8-.49q-2.15,0-6.46.12c-2.89.08-5,.13-6.5.13-.45,0-.67-.24-.67-.71A26.67,26.67,0,0,1,99,29.2a26.78,26.78,0,0,0,.68-4.74c0-.32.28-.49.83-.49q4.22,0,12.67.19t12.67.18a.82.82,0,0,1,.83.7,34.42,34.42,0,0,1,.55,7,2.74,2.74,0,0,1-.55,1.38q-1.93,2.78-8.1,12.29-7,10.84-7,11.37c0,.16.18.24.52.24q6.21,0,9.54-.24c.45,0,1.43-.14,2.94-.37a20.49,20.49,0,0,1,2.84-.3c.28,0,.43.21.43.64A56.32,56.32,0,0,1,127,67,.72.72,0,0,1,126.2,67.66Z"/><path class="cls-2" d="M160.25,50.57c0,2.06-.66,3.23-2,3.52q-.33.06-6.32.67c-2.41.26-6,.58-10.76.94a4.32,4.32,0,0,0,2.59,3,9.22,9.22,0,0,0,4,.86,11.52,11.52,0,0,0,5.47-1.47l2.33-1.47c.42.21,1.14,1.25,2.15,3.12a11.35,11.35,0,0,1,1.51,3.58c0,.14-.15.37-.45.7q-3.73,4-11.59,4-7.28,0-11.74-4.25T130.9,52.28A16.44,16.44,0,0,1,135,40.76a14.37,14.37,0,0,1,11.19-4.65,13.32,13.32,0,0,1,10,4.28A14.22,14.22,0,0,1,160.25,50.57Zm-10.7-1.87a4.76,4.76,0,0,0-1.34-3.33A4.24,4.24,0,0,0,145,43.94a3.84,3.84,0,0,0-3.18,1.62,5.53,5.53,0,0,0-1.16,3.51.74.74,0,0,0,.85.83,53.74,53.74,0,0,0,7-.71C149.22,49.09,149.55,48.93,149.55,48.7Z"/><path class="cls-2" d="M194,66.28a.87.87,0,0,1-.86,1c-.57.08-2,.12-4.46.12a35.54,35.54,0,0,1-4.77-.18,1.11,1.11,0,0,1-.91-1.26c0-1,0-2.4.09-4.34s.09-3.39.09-4.37c0-.75,0-1.88-.06-3.37s-.06-2.63-.06-3.38c0-2.8-1.22-4.19-3.64-4.19a5.23,5.23,0,0,0-2.78,1c-1.14.77-1.71,1.54-1.71,2.29V66.1a1,1,0,0,1-1,1.13c-.72.08-2.17.12-4.37.12a36.24,36.24,0,0,1-4.65-.18,1,1,0,0,1-1-1c0-1.59,0-4,0-7.19s0-5.6,0-7.21a46.89,46.89,0,0,0-1.19-11.95,2.32,2.32,0,0,1-.06-.46.67.67,0,0,1,.46-.67c1.28-.15,3-.37,5.13-.67,3.24-.64,5.07-.95,5.48-.95.22,0,.39.69.52,2.06s.29,2.06.52,2.06c-.23,0,.87-.7,3.28-2.12a13,13,0,0,1,6.35-2.13A11,11,0,0,1,191,38.77a6.86,6.86,0,0,1,2.9,5.87v9.75c0,1.33,0,3.31,0,6S194,65,194,66.28Z"/><path class="cls-2" d="M230.9,34.24c0,.23-.21.34-.61.34q-2.29,0-7-.4c-3.1-.26-5.44-.39-7-.39a14.45,14.45,0,0,0-3.43.21c-.75.35-1.13,1.32-1.13,2.93,0,1.94.49,3,1.47,3.31a8.53,8.53,0,0,0,1.87.15q2.1,0,6.31-.23t6.31-.23q1,0,1,5.38c0,3.12-.11,4.93-.34,5.44a.8.8,0,0,1-.82.55,11.32,11.32,0,0,0-1.93-.21q-3.27-.31-9.9-.31c-1.43,0-2.24,0-2.42,0q-1.56.25-1.56,1.32c0,2.89.13,6.23.37,10q.3,5.12.3,4.56c0,.53-.64.84-1.92.92a22.85,22.85,0,0,0-2.72,0,41.78,41.78,0,0,1-7.37-.39c-.59-.14-.89-.46-.89-1q0-3.39.23-10.2c.16-4.53.23-7.93.23-10.19q0-4-.36-10.15-.56-9.45-.58-10.15l0-.36c0-.51.28-.77.91-.77q2.26,0,6.83.09c3.05.07,5.34.09,6.87.09s4.08-.12,7.35-.36,5.72-.37,7.35-.37c1,0,1.59.42,1.71,1.25s0,2.2.12,3.95c.05.45.18,1.31.4,2.6A15,15,0,0,1,230.9,34.24Z"/><path class="cls-2" d="M263.7,52.13a15.45,15.45,0,0,1-4.26,11.31,16.54,16.54,0,0,1-22.27.06,14.76,14.76,0,0,1-4.35-11q0-7.09,4.16-11.51t11.25-4.42a15,15,0,0,1,11.19,4.32A15.32,15.32,0,0,1,263.7,52.13Zm-10,0a6.65,6.65,0,0,0-1.49-4.27A4.79,4.79,0,0,0,248.29,46a4.93,4.93,0,0,0-4,1.9,6.84,6.84,0,0,0,0,8.47,5.09,5.09,0,0,0,7.92,0A6.58,6.58,0,0,0,253.67,52.13Z"/><path class="cls-2" d="M287.67,48.12q0,1.2-1.32,1.2c-.38,0-1,0-1.69-.08s-1.3-.08-1.67-.08a5.49,5.49,0,0,0-3.46.8c-.61.53-.91,1.6-.91,3.21,0,.87,0,2.2,0,4s0,3.11,0,4c0,.6,0,1.48.12,2.65s.13,2,.13,2.62-.34.76-1,.82q-1.47.12-4.5.12c-1.93,0-3.48-.06-4.64-.18-.68-.08-1-.42-1-1q0-2.44,0-7.32t0-7.32a44.18,44.18,0,0,0-1.32-11.83,2.32,2.32,0,0,1-.06-.46.6.6,0,0,1,.46-.61c1.12-.13,2.76-.35,4.92-.68,3.22-.63,4.88-.94,5-.94.37,0,.61.64.71,1.92s.28,1.93.55,1.93c-.29,0,.55-.54,2.51-1.61a11.75,11.75,0,0,1,5.65-1.6c1.14,0,1.71.24,1.71.73a24.41,24.41,0,0,1-.18,2.51c-.12,1.16-.19,2-.22,2.51s0,1.37,0,2.35C287.65,46.94,287.67,47.74,287.67,48.12Z"/><path class="cls-2" d="M311.7,58.21a25.82,25.82,0,0,1-.23,2.78,23.55,23.55,0,0,0-.23,2.74,2.09,2.09,0,0,1-.19,1.12,3.87,3.87,0,0,1-1,.7,17.79,17.79,0,0,1-8.74,2.17q-8.83,0-8.83-6.76,0-2,.15-6.07c.1-2.69.15-4.72.15-6.06q0-1.35-1.56-1.35h-.39l-.4,0c-.78,0-1.16-.27-1.16-.82,0-.33,0-.83.07-1.5s.08-1.17.08-1.5,0-1.08-.08-2-.07-1.52-.07-1.95.65-.63,1.95-.68c.74,0,1.13-.22,1.2-.61a22.85,22.85,0,0,0,.12-3.66c-.08-2.63-.12-3.89-.12-3.76,0-2.37.22-3.55.67-3.55a10.61,10.61,0,0,1,2.35.37,22.19,22.19,0,0,0,2.42.45c1,.15,2.61.34,4.7.58.51,0,.77.22.77.52,0,.82-.07,2-.2,3.71s-.2,2.89-.2,3.72c0,1,.3,1.5.89,1.5s1.79,0,3.24-.09,2.54-.09,3.27-.09c.45,0,.67.15.67.46,0,.47-.05,1.17-.15,2.11s-.15,1.64-.15,2.11,0,1.2,0,2.13,0,1.66,0,2.15-.3.64-.89.64l-2.05,0-2.05-.05h-2.29c-.3,0-.46.45-.46,1.35v2.17c0,1,0,1.7,0,2.17a7.68,7.68,0,0,0,.58,3.55c.56.87,1.63,1.31,3.25,1.31a10.19,10.19,0,0,0,2.18-.35,10.21,10.21,0,0,1,2-.35A.58.58,0,0,1,311.7,58.21Z"/><path class="cls-2" d="M342.91,50.57c0,2.06-.67,3.23-2,3.52q-.33.06-6.33.67c-2.4.26-6,.58-10.76.94a4.33,4.33,0,0,0,2.6,3,9.19,9.19,0,0,0,4,.86,11.55,11.55,0,0,0,5.47-1.47l2.32-1.47q.64.32,2.16,3.12a11.61,11.61,0,0,1,1.51,3.58c0,.14-.15.37-.46.7q-3.74,4-11.59,4-7.28,0-11.73-4.25t-4.59-11.53a16.44,16.44,0,0,1,4.1-11.52,14.37,14.37,0,0,1,11.18-4.65,13.28,13.28,0,0,1,10,4.28A14.23,14.23,0,0,1,342.91,50.57Zm-10.7-1.87a4.72,4.72,0,0,0-1.35-3.33,4.21,4.21,0,0,0-3.21-1.43,3.87,3.87,0,0,0-3.18,1.62,5.59,5.59,0,0,0-1.16,3.51.75.75,0,0,0,.86.83,53.74,53.74,0,0,0,7-.71C331.87,49.09,332.21,48.93,332.21,48.7Z"/></g></g></svg>