<svg xmlns="http://www.w3.org/2000/svg" viewBox="0 0 296.91 296.91"><defs><style>.cls-1{fill:#08789b;}.cls-2{fill:#f97203;}.cls-3{fill:#ccc;}</style></defs><title>zf_logo_small_blue_1</title><g id="Layer_2" data-name="Layer 2"><g id="Layer_1_copy" data-name="Layer 1 copy"><path class="cls-1" d="M148.45,12a136.45,136.45,0,0,1,96.49,232.94A136.45,136.45,0,1,1,52,52a135.53,135.53,0,0,1,96.48-40m0-12A148.46,148.46,0,1,0,296.91,148.45,148.45,148.45,0,0,0,148.45,0Z"/><rect class="cls-1" x="78.5" y="61.63" width="46.84" height="46.84"/><rect class="cls-2" x="172.18" y="61.78" width="46.84" height="46.84"/><rect class="cls-1" x="78.5" y="108.47" width="46.84" height="46.84"/><rect class="cls-3" x="125.34" y="108.47" width="46.84" height="46.84"/><rect class="cls-1" x="78.5" y="155.31" width="46.84" height="46.84"/><rect class="cls-1" x="125.34" y="155.31" width="46.84" height="46.84"/><rect class="cls-3" x="172.18" y="155.31" width="46.84" height="46.84"/><path class="cls-1" d="M85.89,249.4c-.8,0-2,0-3.62-.13s-2.81-.12-3.61-.12c-1.15,0-2.86,0-5.14,0s-4,0-5.13,0c-.49,0-.77-.16-.83-.47,0-.87-.17-2.17-.41-3.89a9.38,9.38,0,0,1-.25-1.12q0-.1,5-7.92t5-8.41c0-.22-.18-.33-.53-.33-1,0-2.4,0-4.33.08s-3.37.08-4.34.08c-.3,0-.45-.15-.45-.47a17.55,17.55,0,0,1,.46-2.94,17.18,17.18,0,0,0,.46-3.17c0-.22.18-.32.55-.32,1.88,0,4.71,0,8.47.12s6.6.12,8.48.12a.54.54,0,0,1,.55.47,23,23,0,0,1,.37,4.68,1.83,1.83,0,0,1-.37.92q-1.29,1.86-5.42,8.22a87.72,87.72,0,0,0-4.7,7.6c0,.11.12.17.35.17q4.14,0,6.38-.17c.3,0,1-.09,2-.24a13.15,13.15,0,0,1,1.9-.21c.19,0,.29.15.29.43a37.29,37.29,0,0,1-.6,6.65A.47.47,0,0,1,85.89,249.4Z"/><path class="cls-1" d="M108.66,238c0,1.38-.44,2.16-1.32,2.35-.15,0-1.57.18-4.24.45q-2.4.27-7.19.63a2.91,2.91,0,0,0,1.74,2,6.14,6.14,0,0,0,2.69.57,7.73,7.73,0,0,0,3.66-1l1.56-1a6.18,6.18,0,0,1,1.44,2.08,7.83,7.83,0,0,1,1,2.39c0,.1-.1.26-.31.47q-2.49,2.69-7.74,2.68a10.92,10.92,0,0,1-7.85-2.84A10.06,10.06,0,0,1,89,239.11a11,11,0,0,1,2.74-7.7,9.62,9.62,0,0,1,7.48-3.11,8.85,8.85,0,0,1,6.66,2.86A9.5,9.5,0,0,1,108.66,238Zm-7.15-1.25a3.17,3.17,0,0,0-.9-2.23,2.85,2.85,0,0,0-2.15-1,2.57,2.57,0,0,0-2.12,1.09,3.72,3.72,0,0,0-.78,2.35c0,.37.19.55.57.55a36.38,36.38,0,0,0,4.7-.47C101.28,237,101.51,236.87,101.51,236.72Z"/><path class="cls-1" d="M131.23,248.48a.58.58,0,0,1-.57.63c-.38,0-1.38.08-3,.08a23.76,23.76,0,0,1-3.18-.12.75.75,0,0,1-.62-.84c0-.64,0-1.61.06-2.9s.07-2.27.07-2.92,0-1.26,0-2.26,0-1.76,0-2.26c0-1.87-.81-2.8-2.43-2.8a3.57,3.57,0,0,0-1.86.69c-.76.52-1.14,1-1.14,1.54v11a.68.68,0,0,1-.64.76c-.47,0-1.45.08-2.92.08a24.35,24.35,0,0,1-3.11-.12.64.64,0,0,1-.63-.68c0-1.06,0-2.66,0-4.8s0-3.75,0-4.82a31.62,31.62,0,0,0-.8-8,1.24,1.24,0,0,1,0-.3.44.44,0,0,1,.31-.45c.86-.1,2-.25,3.43-.45,2.17-.42,3.39-.64,3.66-.64s.27.46.35,1.38.2,1.38.35,1.38c-.15,0,.58-.47,2.19-1.42a8.79,8.79,0,0,1,4.25-1.42,7.31,7.31,0,0,1,4.33,1.23,4.59,4.59,0,0,1,1.94,3.92v6.52c0,.89,0,2.22,0,4S131.23,247.59,131.23,248.48Z"/><path class="cls-1" d="M155.9,227.05c0,.15-.13.23-.4.23q-1.55,0-4.65-.27c-2.08-.17-3.64-.26-4.68-.26a9.33,9.33,0,0,0-2.29.14c-.5.23-.75.89-.75,2,0,1.3.33,2,1,2.21a5.5,5.5,0,0,0,1.25.1c.94,0,2.34,0,4.22-.15s3.28-.15,4.22-.15c.45,0,.67,1.2.67,3.59a15.21,15.21,0,0,1-.22,3.64.54.54,0,0,1-.55.37,7,7,0,0,0-1.29-.14q-2.19-.21-6.62-.21c-1,0-1.5,0-1.62,0-.69.11-1,.41-1,.88q0,2.91.24,6.69c.14,2.27.21,3.29.21,3,0,.36-.43.56-1.29.62a12.1,12.1,0,0,0-1.82,0,27.39,27.39,0,0,1-4.93-.26c-.39-.1-.59-.31-.59-.63q0-2.28.15-6.82c.11-3,.16-5.31.16-6.82q0-2.7-.25-6.79-.36-6.31-.38-6.78l0-.25c0-.34.19-.51.62-.51,1,0,2.53,0,4.57.06s3.56.06,4.59.06,2.72-.08,4.91-.24,3.83-.25,4.92-.25q1,0,1.14.84c0,.59,0,1.47.08,2.64q0,.45.27,1.74A9.89,9.89,0,0,1,155.9,227.05Z"/><path class="cls-1" d="M177.84,239a10.35,10.35,0,0,1-2.85,7.57,11.06,11.06,0,0,1-14.89,0,9.88,9.88,0,0,1-2.91-7.36,10.8,10.8,0,0,1,2.78-7.7,9.84,9.84,0,0,1,7.53-2.95A10.05,10.05,0,0,1,175,231.5,10.25,10.25,0,0,1,177.84,239Zm-6.71,0a4.41,4.41,0,0,0-1-2.85,3.2,3.2,0,0,0-2.59-1.24,3.3,3.3,0,0,0-2.66,1.27,4.58,4.58,0,0,0,0,5.66,3.39,3.39,0,0,0,5.29,0A4.36,4.36,0,0,0,171.13,239Z"/><path class="cls-1" d="M193.86,236.33c0,.54-.29.8-.87.8-.26,0-.64,0-1.14,0s-.87-.05-1.11-.05a3.69,3.69,0,0,0-2.31.53,2.83,2.83,0,0,0-.62,2.15c0,.58,0,1.47,0,2.66s0,2.09,0,2.67c0,.4,0,1,.08,1.77s.08,1.37.08,1.75-.23.51-.68.55c-.65,0-1.65.08-3,.08s-2.33,0-3.11-.12c-.45-.06-.67-.28-.67-.68,0-1.09,0-2.72,0-4.89s0-3.81,0-4.9a29.52,29.52,0,0,0-.88-7.91,1.24,1.24,0,0,1,0-.3.39.39,0,0,1,.3-.41q1.13-.12,3.3-.45c2.15-.43,3.26-.64,3.33-.64.24,0,.4.43.47,1.29s.19,1.29.37,1.29c-.19,0,.36-.36,1.67-1.07a7.85,7.85,0,0,1,3.78-1.08c.77,0,1.15.17,1.15.49a16.25,16.25,0,0,1-.12,1.68c-.09.78-.13,1.34-.15,1.68s0,.92,0,1.57S193.86,236.08,193.86,236.33Z"/><path class="cls-1" d="M209.93,243.08a17.1,17.1,0,0,1-.15,1.86,17.06,17.06,0,0,0-.15,1.83,1.45,1.45,0,0,1-.13.75,2.71,2.71,0,0,1-.67.47,12,12,0,0,1-5.85,1.45q-5.91,0-5.91-4.52c0-.9,0-2.25.11-4.06s.1-3.16.1-4.06c0-.59-.35-.89-1-.89H196l-.27,0c-.51,0-.77-.19-.77-.56,0-.21,0-.55,0-1s.05-.78.05-1,0-.72-.05-1.31,0-1,0-1.31.43-.42,1.31-.45c.49,0,.75-.15.79-.4a15.11,15.11,0,0,0,.08-2.46c-.05-1.76-.08-2.59-.08-2.51q0-2.37.45-2.37a7.46,7.46,0,0,1,1.58.24,14.58,14.58,0,0,0,1.61.31l3.15.39c.34,0,.51.14.51.34,0,.55,0,1.37-.13,2.48s-.14,1.93-.14,2.49.2,1,.6,1,1.2,0,2.16-.06,1.7-.06,2.19-.06c.3,0,.45.1.45.31a13.71,13.71,0,0,1-.1,1.41,13.53,13.53,0,0,0-.1,1.41c0,.33,0,.8,0,1.43s0,1.1,0,1.43-.2.43-.59.43l-1.38,0-1.36,0h-1.54q-.3,0-.3.9v1.45c0,.65,0,1.14,0,1.45a5,5,0,0,0,.39,2.37,2.34,2.34,0,0,0,2.16.88,6.91,6.91,0,0,0,1.46-.23,6.51,6.51,0,0,1,1.34-.24C209.79,242.63,209.93,242.78,209.93,243.08Z"/><path class="cls-1" d="M230.8,238c0,1.38-.44,2.16-1.33,2.35q-.22,0-4.23.45c-1.61.18-4,.39-7.19.63a2.91,2.91,0,0,0,1.74,2,6.11,6.11,0,0,0,2.69.57,7.73,7.73,0,0,0,3.66-1l1.56-1a6.18,6.18,0,0,1,1.44,2.08,7.83,7.83,0,0,1,1,2.39c0,.1-.1.26-.31.47q-2.49,2.69-7.75,2.68a10.9,10.9,0,0,1-7.84-2.84,10.06,10.06,0,0,1-3.07-7.71,11,11,0,0,1,2.74-7.7,9.62,9.62,0,0,1,7.48-3.11,8.85,8.85,0,0,1,6.66,2.86A9.5,9.5,0,0,1,230.8,238Zm-7.15-1.25a3.17,3.17,0,0,0-.9-2.23,2.85,2.85,0,0,0-2.15-1,2.56,2.56,0,0,0-2.12,1.09,3.72,3.72,0,0,0-.78,2.35c0,.37.19.55.57.55a36.38,36.38,0,0,0,4.7-.47C223.42,237,223.65,236.87,223.65,236.72Z"/></g></g></svg>