<?xml version="1.0" encoding="utf-8"?>
<!-- Generator: Adobe Illustrator 23.0.0, SVG Export Plug-In . SVG Version: 6.00 Build 0)  -->
<svg version="1.1" id="Layer_1" xmlns="http://www.w3.org/2000/svg" xmlns:xlink="http://www.w3.org/1999/xlink" x="0px" y="0px"
	 viewBox="0 0 371.9 91.9" style="enable-background:new 0 0 371.9 91.9;" xml:space="preserve">
<style type="text/css">
	.st0{fill:#F36F40;}
	.st1{display:none;fill:#049AD2;}
	.st2{fill:#049AD2;}
	.st3{fill:#F97203;}
	.st4{fill:#CCCCCC;}
	.st5{opacity:0.79;fill:#045D7C;}
	.st6{fill:#054351;}
</style>
<title>Asset 1</title>
<g>
	<g id="Layer_1-2">
		<path class="st0" d="M371.9,52.8C371.9,52.8,371.9,52.8,371.9,52.8c-0.1,0.1-0.1,0.1-0.1,0.1L371.9,52.8z"/>
		<path class="st0" d="M371.3,53c-0.1,0.1-0.1,0.3,0,0.4c0-0.2,0.1-0.2,0.1-0.3s0.2-0.1,0.2,0s0.1-0.1,0.2-0.1
			c-0.2,0-0.3,0.1-0.4,0.2L371.3,53z"/>
		<path class="st0" d="M361.8,54.9l0.1,0.1C361.9,55,361.9,54.9,361.8,54.9z"/>
		<path class="st0" d="M355.7,55.8c0,0,0-0.2-0.1-0.4C355.7,55.5,355.7,55.7,355.7,55.8z"/>
		<path class="st0" d="M353.9,54.3c0,0,0.1,0.1,0.1,0.1C353.9,54.2,353.9,54.1,353.9,54.3z"/>
		<path class="st0" d="M361.8,54.9l-0.3-0.3C361.7,55,361.7,54.8,361.8,54.9z"/>
		<path class="st0" d="M370.4,54.3c0,0,0-0.1,0-0.1V54.3L370.4,54.3z"/>
		<path class="st0" d="M364,53.4L364,53.4V53V53.4z"/>
		<path class="st0" d="M366,53c0.1,0.3,0.2,0.6,0.3,0.9c-0.1-0.1-0.1-0.3-0.1-0.5C366.2,53.3,366.1,53.2,366,53z"/>
		<path class="st0" d="M369.5,53.3L369.5,53.3C369.5,53.3,369.6,53.3,369.5,53.3z"/>
		<path class="st0" d="M362.5,53.5l-0.2-0.3C362.4,53.3,362.4,53.4,362.5,53.5z"/>
		<path class="st0" d="M315.8,83.8L315.8,83.8C315.8,83.8,315.7,83.8,315.8,83.8z"/>
		<polygon class="st0" points="313,83.9 313,83.8 313,83.8 		"/>
		<path class="st0" d="M351.2,52.8L351.2,52.8C351.2,52.7,351.2,52.7,351.2,52.8z"/>
		<path class="st0" d="M335.7,60.5c1,1.5,0.8,2.1,2,3.7C337.1,62.9,336.5,61.7,335.7,60.5z"/>
		<path class="st0" d="M370.4,54.3C370.3,54.3,370.3,54.3,370.4,54.3C370.3,54.3,370.3,54.3,370.4,54.3z"/>
		<path class="st0" d="M337.7,64.2L337.7,64.2l0.1,0.2L337.7,64.2z"/>
		<path class="st0" d="M347.4,55c0.1,0.3,0.3,0.5,0.4,0.7C347.7,55.5,347.6,55.2,347.4,55z"/>
		<path class="st0" d="M351.6,56.2l-0.2-0.2C351.5,56.2,351.5,56.2,351.6,56.2z"/>
		<path class="st0" d="M347,57.9c-0.1-0.1-0.2-0.3-0.2-0.1L347,57.9C346.8,57.7,346.8,57.6,347,57.9z"/>
		<path class="st0" d="M345.4,58.5l0.2,0.3v-0.1L345.4,58.5z"/>
		<path class="st0" d="M321.2,82.8c-0.2-0.2-0.4-0.4-0.5-0.6C321.1,82.7,320.9,82.9,321.2,82.8z"/>
		<path class="st0" d="M370.3,54.1c0,0,0,0.1,0,0.2v0C370.3,54.2,370.3,54.2,370.3,54.1z"/>
		<path class="st0" d="M353.4,71.1L353,71C353.1,71.1,353.3,71.1,353.4,71.1z"/>
		<path class="st0" d="M333,79.2l0,0.2C333.1,79.4,333.1,79.3,333,79.2z"/>
		<path class="st0" d="M352.5,71.7c-0.2-0.4-0.5-0.7-0.7-1.1L352,71L352.5,71.7z"/>
		<path class="st0" d="M320.7,82.2L320.7,82.2z"/>
		<path class="st0" d="M319.8,84c0.3,0-0.4-0.8-0.6-1.2c0.2-0.3,0.5,0.6,0.9,1c0.1-0.2-0.3-1-0.1-1c0.1,0.1,0.2,0.2,0.3,0.4
			c-0.3-0.8,0.6-0.2,0.2-1.2c0.1,0.1,0.1,0.1,0.2,0.2c-0.4-0.5-0.7-1-0.9-1.3c0.1-0.1-0.2-0.7,0.2-0.1c-0.1,0,0.1,0.3,0.2,0.5
			l-0.1-0.3c0.7,0.9,0,0.4,0.5,1c0-0.4-0.2-1.3,0.1-1.1c0.7,1-0.2,0.5,0.6,1.2l-0.5-0.3c1.2,1.4-0.2-0.1,1,1.4
			c0.6,0.2,0.1-0.6,0.7-0.3c-0.3-0.6-0.5-0.8-0.8-1.4c-0.2-1.2,2.1,2.5,1.6,1c-0.4-0.7-1.2-2.1-0.5-1.5l0.7,1.3c0.4,0-1-1.9,0-1.1
			c0.3,0.5,0,0.5,0.1,0.6c0.9,0.9-0.3-0.8-0.1-0.8l0.8,1.1c0.3-0.3,0.1-1.3,0.4-1.6c0.2,0.4,0.4,0.8,0.7,1.2
			c0.1-0.8,1.2-0.2,2.2,0.5l-0.6-1.2c0.2,0.2,0.4,0.5,0.5,0.8c0.5,0.4-0.5-0.8-0.7-1.3c0.1-0.1,0.6,0.7,0.7,1
			c-0.3-1.1-0.5-2.6,0.7-1.4l0.2,0.4c0.6,0.4-1.3-2.8-0.3-1.7l0.1,0.3c0.9,0.4,0.8-1.2,2.5,0.8c-1.1-2.1,1.1,0.7-0.6-2.2
			c0.7,1,1.6,1.9,2.5,2.7c0.2,0.1-0.9-1.9-1-2.3l0.9,1.6L332,78l1.2,1.8l-0.1-0.5c-0.3-0.3-0.6-0.7-0.8-1.1
			c-0.2-0.8,1.2,0.9,1.7,1.7l-0.3-1.6c0.2,0.4,0.4,0.9,0.6,1.4c-0.7-1.8,1.1,1.7,0.4,0.1c-0.3-0.4-0.5-1-0.7-1.3
			c0.7,0.9,1,0.8,1,0.3l0.6,1.1c0.6,0.2,0.5-0.9,1-1c-0.7-0.9-1.2-1.8-1.6-2.8l1.1,1.8c-0.4-0.7-0.8-1.4-1.1-2.1
			c0.6,0.8,1.2,1.7,1.5,2.7l-0.2-0.7c0.3,0.5,0.4,0.8,0.8,1.5c-0.6-1.2,1.4,1.7,0.4-0.3l0.3,0.6c0.5-0.2,0.3-0.9,0.6-1.1
			c-0.5-0.9-0.9-1.8-1.2-2.7c0.5,0.4,1.6,1.6,1.8,1.3c-0.3-0.8-0.7-1.7-1.2-2.4c0.9,1.5,1.1,1.2,1.5,2.4c0.2-0.4,0.3-0.5,0.1-2
			c-0.3-0.4-0.6-0.9-0.9-1.4c0-0.3,0.5,0.6,0.9,1.3l0.1,0.2c-0.8-2.6,3.7,3.9,2.3,0.5l0.1,0.2l-0.5-1.9c0.3,0.2,0.5,1.2,1.2,2.1
			c-1-2.8,0.9,0,0.4-1.9c2.8,4.5,0.9-0.8,2.8,1.9l-0.7-1.1c-0.5-1.1,0.5,0.6,0.7,0.8c-0.3-0.5-0.6-1-0.9-1.6c0.1-1.8,2.6,0.7,4,1.2
			c0.5,0.1-2.8-5.8-1-3.4l0.9,2.1c-0.6-2.8,1.3-0.7,0.9-3.1c0.2,0.4,0.3,0.7,0.4,1.1c0.9,1.4,0.5-0.2-0.1-1.4
			c0.3,0.5,0.6,1.1,0.9,1.7c0.6,0.8-0.6-2.1,0.2-0.7c0.1,0.2,0.2,0.4,0.2,0.6c-0.3-0.8,0.5-0.1-0.4-1.7c0.6,0.7,0.1-1,0.7-0.1
			c-0.8-1.9,0.8,0.7-0.4-2c1.3,2.7,1.5,1.9,1,0.6c0.4,0.8,0.5,0.8,1,1.9c0.1-0.1,0-0.7-0.6-2.1c1.9,3-0.6-2.9,1.5,1
			c-0.2-1.3-0.2-2.6,0-3.8c1.2,2.6-0.4,0.6,1,3.3c-0.1-1.4-0.9-3.7-0.2-3.3c0.3,0.5,0.5,1,0.6,1.6c-0.1-1.3,0.9-0.3,0.6-1.9
			c0.1,0.2,0.2,0.5,0.2,0.7c0-0.1,0.3,0.3-0.2-0.9l0.1,0.3c-0.7-1.4-1.2-2.9-1.7-4.4c1.4,3.2,0.8,0.6,2.4,4.7
			c-0.1-0.5-0.3-1-0.6-1.5c0.3,0.4,0.6,0.9,0.7,1.5c0-0.8-0.6-1.9-0.4-2c0.2,0.5,0.3,0.8,0.5,1.4c-0.4-1.1-0.7-2.2-0.3-1.9
			c0.1,0.3,0.4,0.7,0.3,0.7c0.3-0.4-0.6-3,0.2-2.3c0.9,2.2,0.5,0.6,1.3,2.5l0-0.7l-0.5-0.8c0.2-0.1-0.3-1.5,0.2-1l0.2,0.8l0.2-0.6
			l-0.5-0.6c-0.2-1-1.1-2.3-0.6-1.9c0,0.2,0.2-0.1,0.8,0.9l0,0c-0.2-0.6-0.3-1.3,0-0.9c0.3,0.5,0.9,2,1,2.3
			c-0.6-1.5,0.2-0.7-0.3-2.3c0.1,0.4,0.5,1.3,0.6,1.5l-0.4-1.2c0.3,0.4,0.5,0.8,0.6,1.2c0.3,0-1-2.1-0.3-1.4c0,0.1,0.1,0.3,0.1,0.5
			c0.5,0.3,0.3-1.1,0.8-0.7c0.8,1.6-0.1,0.6,0.6,1.9c0.2-0.6,0-2.5,0.5-2.3l-0.1-0.1c-0.9-2.2,0.8,0.9,0.5-0.3
			c0.1,0.3,0.2,0.7,0.4,1c0.4,0.2,0.3-0.9,0.5-1.7l0.2,0.5c0.3,0.3,0.5,0,0.8,0.1c-0.1-0.4-0.2-0.8-0.4-1.2c0.9,1.2,0.9,0.6,1,0.1
			s0.1-1.1,0.8-0.3c-0.1,0,0,0.5,0.1,0.4l0.2-0.7c-0.1-0.3-0.3-0.6-0.5-0.9c-0.1-0.4-0.1-0.8,0-0.8c0.1,0.5,0.3,1,0.7,1.4
			c-0.1-0.2-0.2-0.4-0.3-0.6c0.7,1-0.5-1.3,0.1-0.7l0.1,0.3c0-0.2,0-0.7,0.1-0.7c0.3,0.7,0,0.4,0.3,1c0.1-0.2-0.2-1.5,0.2-0.9
			c0,0.2-0.1,0.3-0.1,0.5c0.5,0.7,0.4,0.5,0.6,0.5l0,0l0.4,0.2l-0.1-0.2c-0.3-0.9-0.2-1-0.1-1.1s0.3-0.1,0.2-0.6
			c0.1,1.1,0.2,0.6,0.4,1.2c0.1,0.1,0.3,0.3,0.4,0.5c-0.1-0.6,0.4,0.2,0.2-0.6c0.1,0.2,0.1-0.1,0.3,0.4c0.1-0.3-0.2-0.3-0.3-0.5
			c0-0.4,0.2-0.3,0.4-0.3s0.4,0,0.5-0.5c0.2-0.5,0.1-1,0.3-1.3c0.2,0.1,0.1,0.5,0.1,0.5c0.2,0.1,0.3,0,0.5-0.3
			c0,0.1,0.1,0.2,0.1,0.2c0.1-0.1,0-0.4,0.2-0.3c0,0.1,0,0.3,0,0.4c0.1-0.2,0.2-0.4,0.3-0.6c0.1,0.1,0,0.2,0,0.4
			c0.1-0.2,0.4-0.5,0.4-0.6h-0.1c0.1,0,0.1,0.1,0,0.2c-0.1,0.2-0.2,0.1-0.3,0l0.1-0.1c-0.1-0.1-0.2-0.1-0.3,0s-0.2,0.3-0.3,0.4
			l0-0.4c0,0.1-0.1,0.3-0.1,0.4c-0.1-0.1-0.2-0.3-0.1-0.4c-0.3-0.2-0.1,0.2-0.3,0c0,0,0-0.1,0-0.1l-0.1,0.2c0-0.1-0.2-0.3,0-0.3
			c-0.4-0.3-0.3,0.5-0.6,0.1v0c-0.3,0.3,0.1,0.4,0,1.1l-0.7-1.1l0.2,0.5c0,0-0.1,0-0.2-0.2c0,0.4,0.1,0.2,0.2,0.6
			c-0.4-0.4-0.5,0.5-0.9-0.5c0.1,0.5,0.3,0.3,0.3,0.7c-0.5-1-0.2,0.3-0.6-0.2c-0.2-0.6,0.1-0.3-0.3-0.8c0.3,1-0.5-0.1-0.6,0.1
			c0.3,0.8-0.2,0.4-0.4,0.8c-0.1-0.3-0.7-0.4-1.1-0.7l-0.1-0.2c0.4,1,0,0.9-0.1,1.2c-0.2-0.4-0.3-0.8-0.3-1.2H364
			c0.1,0.2,0.1,0.5,0.1,0.7l-0.3-0.8c-0.2,0.1-0.1,1.1-0.6,0.6c0.3,0.8,1.2,2.2,1.1,2.9c-0.2-0.5-0.4-0.9-0.5-1.4
			c0,0.1,0.1,0.4-0.1,0.2l-0.2-0.8c-0.3-0.3,0.2,0.7,0.1,0.6c-0.3-0.6-0.3-0.4-0.5-1c0-0.1,0.2,0.2,0.1,0c-0.3-0.2-0.6-0.6-0.8-0.9
			c0.2,0.3,0.3,0.6,0.3,1c-0.2,0.1-0.4-0.8-0.7-1.1c0.1,0.5-0.2,0,0.2,1c-0.1,0-0.3-0.5-0.4-0.7c0.1,0.5-0.5,0.3,0.1,1.4L362,55l0,0
			l0,0c0.1,1.2-1.1-0.4-1.3,0.2l-0.2-0.4c0,0.5-0.4,0.4-0.2,1.3c-0.3-0.3-0.5-0.7-0.7-1.2c0,0.4,0.1,0.8-0.4,0.2
			c-0.1-0.8-0.4-0.6,0-0.6c-0.4-0.3-0.8-1-0.5,0.3c-0.4-1.1-0.8-1.3-0.8-1l0.5,0.8c-0.1,0.2-0.2,0.1-0.4,0.1l-0.6-1.5
			c-0.6-0.8-0.5,0-0.5,0.6s0.1,1.2-0.8-0.3c0.4,1.1,0.6,0.7,1.1,2c-0.6-0.7-1.1-1.5-1.6-2.3c-0.7-0.8,0.8,2.4,0.2,1.9
			c0.5,0.8,0.8,1.8,1,2.7c-0.7-0.9-1.1-1.8-1.4-2.9c0-0.1,0.1,0.1,0.2,0.3c0-0.4-0.2-0.8-0.4-1.1l0.2,0.6c-0.4-0.6-0.7-0.4-1-1.4
			c0.1,0.5,0.3,0.9,0.6,1.3c-0.7-0.8-0.5,0.1-1-0.4c0.2,0.3,0.4,0.6,0.5,1c-0.8-0.6,0.3,1.2,0.2,1.6c-0.6-0.9-1-2.2-0.9-1.4
			c-0.4-0.7-0.8-1.4-0.9-2.1c0.3,1.3-0.9-0.7-1.1-0.8l-0.1-0.5c0,0.3,0,0.3-0.1,0.3l0.7,1.2c-0.2-0.2-0.4-0.4-0.5-0.7
			c0.3,0.8,1,2.1,1.4,3.2c-0.4-0.6,0,0.8-0.8-0.9c0.6,0.5-0.8-1.7-0.6-2c0,0.2,0,0.2-0.2,0c-0.1-0.1-0.1-0.3-0.2-0.5
			c-1-1.4,0.7,1.9,0.4,2c-0.4-1-0.9-1.8-0.9-1.6c0.5,0.7,0.8,1.5,1,2.4c-0.6-0.7,0,0.6-0.1,0.6l0.3,0.3c0.4,1,0.2,0.9,0.2,1.3
			c-0.4-0.8-0.1-0.6-0.3-0.9c0.6,1.8-1.2-1.7-0.9-0.4c-0.4-0.6-0.9-1.8-1.2-2.3c0.3,1.4-0.9-1.3-0.7-0.1c0.5,0.7,0.8,1.5,1,2.4v-1.1
			l0.6,2c0.1,0-0.1-1,0.1-0.8c0.2,0.7,0.4,1.3,0.8,1.9c-1.1-1.9,0.2,1.3-0.7,0l-1.6-3.3c-1-1.4,0.2,1.9-0.6,1.2l0.4,0.5
			c0.6,1.4-0.2,0.3,0,0.9c-0.4-0.8-0.8-1.5-1.2-2.2c0.4,0.8-0.4,0,0.7,2.3l-0.9-1.5c-0.6-0.5,1.2,3.5,0.7,3.2
			c-0.5-0.9-0.9-1.9-1.3-2.9c-0.1,0-0.3-0.2,0.1,0.7c-0.4-0.7,0.5,1.7-0.2,0.6c0.2,0.5,0.8,1.8,0.6,1.7c-0.1-0.2-0.3-0.6-0.3-0.6
			c0.2,0.7,0.6,1.5,1,2.1c-2.1-3.5-0.8,0.7-2.6-2.4c0,0.4-0.1,0.8-0.3,1.2c-0.2-0.4-0.3-0.6-0.2-0.5c-0.9-1,1.5,3.5,0.6,2.4
			c-1.1-1.9-0.4-1.1-0.8-1.8c-2-4-0.1,0.7-1.5-1.5l-0.1-0.3c-0.9-1.3,0.3,1.7-0.1,1.5c0,0-0.2-0.4-0.3-0.6c0.5,1.2,0.8,2.4,0.9,3.7
			c-0.3-0.8-0.7-1.7-1.2-2.5c0,0.3,1.3,2.5,1.3,3.1c-0.7-1-1.4-2.1-2-3.2l0.2-0.2c-1.3-2.2-0.3,0.2-0.6-0.1l-0.5-1
			c-0.2,0.5,1.1,2.9,0.6,2.9l0.4,0.7c1,2.5-0.9-1.3-0.1,0.6l-1.3-2.4c0.3,1,0.6,2.1,0.8,3.2c-0.5-1.3-1-2.7-1.4-4.1
			c-0.1,0-0.4,0.4,0.2,1.7c-0.1-0.3-0.3-0.9-0.1-0.5c0.9,2,1.1,3.1,0.9,3.2c-2.4-4.8-1.3-0.8-3.4-4.4c0.5,2-1.3-0.3-1.7,0.3
			c2.1,3.6-0.1,0.2,2,3.9c0,0.3-0.1,0.3-0.2,0l-1.6-2c-0.7-1-0.3-0.9-0.8-1.7c-0.4-0.1-1-1.5-1.7-2.4c0.8,1.3,0.9,2,0.5,1.5l1.1,1.6
			c0.7,2.2-2-3-1.3-0.8l-0.5-1.2c0.2,0.8-0.7,0.4,0.7,3.5c-0.4-0.5-0.7-1.1-0.9-1.7c-0.7-0.2,0.7,3.8-0.6,2.2l-0.5-0.9
			c0.1,0.3,0.8,1.8,0.2,0.9c-0.2-0.3-0.3-0.6-0.5-0.9c0.1,0.3,0.6,1.7,0.3,1.3l-0.5-1c-1.1-0.9,0.7,2.8,0.6,3.7
			c-1.4-2.6-2.2-3.2-2.6-3.4l-0.2-0.4c-0.7,0.1,0.4,2.7,0.5,4c-1.8-2.5-1.6-0.4-2.9-1.5c0.5,0.7,0.9,1.4,1.2,2.2
			c-0.4-0.4,0.7,1.9-0.6-0.3h0.1c-1.3-2.1-1.2-1.3-1.4-1.3l1.6,2.8c-1.4-1.9-1.5-1.3-1.5-0.6s0,1.3-1.1-0.4c0.3,0.8,0.2,0.9,0.5,1.6
			l-0.8-1.4c-0.5-0.1-0.7-0.2-0.9,0.5l-0.5-1c-0.2,0.1,2.1,4.2,2,4.4l-1.3-2c-0.3,0.3-1.7-1.1-0.9,1c-0.2-0.3-0.4-0.6-0.5-1
			c-0.2,0.1-1.4-0.7,0.3,1.8c-1-1.7-0.4,0.2-0.2,1l-0.7-1.2c0.8,1.7,1,2.1,1.1,2.7c-0.1-0.1-0.6-0.9-0.4-0.7c-0.5-0.5,0.5,1.2,0,0.8
			l-0.4-0.8c-0.2,0.1,0,0.4,0.5,1.4c0.2,0.5-0.5,0-1.2-1c0.4,0.6,0.8,1.5,0.5,1.3c-0.2-0.2-0.3-0.5-0.4-0.8
			c-0.8-0.5,0.4,1.6-0.5,0.8c-0.1-0.2-0.3-0.4-0.4-0.6c0.2-0.2,0.5-0.3,0.5-0.2c-0.6-0.8-1.2-1.6-1.6-2.5c0.3,0.9,1.1,2.8,0.6,2.5
			l-0.2-0.3v-0.1c-0.1,0-0.1,0.1,0,0.3c-0.1-0.1-0.3-0.2-0.3-0.1c-0.5-0.7-0.4-0.2-0.5-0.1c0.3,0.6,0.6,1.1,1,1.6
			c-0.1-0.1-0.1-0.1,0-0.2c0,0,0-0.1,0-0.1l0,0.1c0-0.1,0.1-0.2,0.2-0.3c0.3,0.6,0.5,1.1,0,0.6l0.9,1.7c-1-1.3-1.7-1.7-2.2-2.5
			c-0.2,1,0,2,0.5,2.9c0,0.3-0.4-0.4-0.6-0.6s0-0.2-0.1-0.5c0.1,0.6-0.3,0.6,0.3,1.7c-0.5-0.3-0.5-1.1-0.7-0.7l-0.2-0.4
			c-0.8-0.6-0.5,0.4-0.4,1.1s0.2,1.4-0.7,0.8c0.1,0.1,0.2,0.1,0.3,0.2c-0.6-0.1-0.8,0.5-1.1,0.9c-0.2,0.5-0.6,0.8-1.1,0.8
			c-0.3,0-0.1,0.4,0,0.8l-0.3-0.4l0.1,0.6c0,0.3-0.3,0.2-0.5,0.2s-0.4,0.1-0.4,0.4l0.1,0.1c-0.1,0.1-0.3,0.5-0.4,0.3
			c0,0,0,0.2,0,0.2l-0.1-0.1c-0.1,0.2-0.1,0.3-0.2,0.4c-0.3,0.2-0.1-0.3-0.4,0.2c0,0.2-0.1,0.3-0.2,0.4c0,0,0.1-0.1,0.1-0.1
			l-0.1,0.1c0,0-0.2,0,0.3,0c0.1,0,0.2,0,0.3-0.1h0.1h-0.3c0.1,0,0.2,0,0.3-0.1c0.1,0,0.1,0.1,0.2,0.1c0.1-0.1,0.1-0.1,0.2-0.2
			c0.1,0.1,0,0.2,0.2,0.2c0.1-0.1-0.3-0.2-0.1-0.3c0.2,0.1,0.3,0.2,0.3,0.1c0.1,0.1,0.1,0.1,0,0.2s0.4-0.1,0.3-0.3
			c0.3,0.2,0.5-0.2,0.7,0.3c0-0.1,0-0.4,0.1-0.4c0.1,0.6,0.5-0.1,0.9,0.6c-0.2-0.6,0.5-0.3,0.6-0.8c0,0.1,0.1,0.2,0,0.2
			c0.2,0,0.4,0.3,0.6,0.4c-0.4-0.6-0.2-0.8-0.4-1.3c0.7,0.6,0.4,0.8,0.9,1.5c-0.4-0.6,0-0.6-0.4-1.1c0.3,0.2,0.6,0.5,0.8,0.8
			c-0.6-1,0.1-0.2-0.2-0.8c0.6,0.4,0.7,0.9,0.8,0.6C319.8,83.5,319.9,83.7,319.8,84z M324.4,80.2L324.4,80.2l-0.1,0.1
			C324.4,80.3,324.4,80.2,324.4,80.2L324.4,80.2z M324.9,80c-0.1,0-0.2,0-0.2,0c-0.2-0.4-0.5-0.7-0.4-0.7
			C324.4,79.5,324.7,79.8,324.9,80L324.9,80z M319.5,73.4c0-0.2,0.1,0,0.3,0.2c0,0.1,0,0.2,0,0.2l0.1,0.1
			C319.7,73.8,319.6,73.6,319.5,73.4L319.5,73.4z"/>
		<path class="st0" d="M320.2,74.9C320.2,74.9,320.2,75,320.2,74.9l0.2,0.3L320.2,74.9L320.2,74.9z"/>
		<path class="st0" d="M362,55L362,55l0.1,0.1L362,55z"/>
		<polygon class="st0" points="333,80.1 332.7,79.7 332.9,80.1 		"/>
		<path class="st0" d="M365.8,57c0,0.1,0.1,0.1,0.1,0.2C365.9,57.1,365.9,57.1,365.8,57z"/>
		<path class="st0" d="M366.9,56.5l0.2,0.1C367.1,56.6,367,56.6,366.9,56.5z"/>
		<path class="st0" d="M367.8,56.3l-0.1-0.3l0,0L367.8,56.3z"/>
		<path class="st0" d="M356.4,66.5C356.4,66.5,356.4,66.5,356.4,66.5C356.5,66.9,356.5,66.8,356.4,66.5z"/>
		<path class="st0" d="M358.6,60.8c0.1,0.3,0.1,0.5,0.2,0.7S358.9,61.5,358.6,60.8z"/>
		<path class="st0" d="M353.4,71.1L353.4,71.1L353.4,71.1z"/>
		<path class="st0" d="M358.5,61.6c0.2,0.2,0.2,0.1,0.2-0.1C358.6,61.4,358.5,61.3,358.5,61.6z"/>
		<path class="st0" d="M371,53.7L371,53.7L371,53.7z"/>
		<path class="st0" d="M371.1,53.6L371.1,53.6C371.1,53.5,371.1,53.6,371.1,53.6z"/>
		<path class="st0" d="M371.2,53.4l-0.1,0.1C371.1,53.5,371.2,53.5,371.2,53.4z"/>
		<path class="st0" d="M370,54.5v0.1C370,54.6,370.1,54.5,370,54.5z"/>
		<path class="st0" d="M369.8,54.7c0.1,0,0.3,0.1,0.3-0.1v-0.1C370.1,54.8,369.7,54.5,369.8,54.7z"/>
		<path class="st0" d="M367.6,53.5l0.4,0.1c-0.1-0.2-0.3-0.4-0.2-0.5C367.1,52.5,368,53.5,367.6,53.5z"/>
		<path class="st0" d="M366.5,53.3c0.1-0.1-0.1-0.3-0.2-0.5C366.2,53,366.3,53.2,366.5,53.3z"/>
		<path class="st0" d="M359.4,54.8l-0.4-1.1C358.9,53.9,359.2,54.1,359.4,54.8z"/>
		<polygon class="st0" points="360.7,61 361.1,61.6 360.7,60.5 		"/>
		<polygon class="st0" points="356.3,53 356.3,52.8 356.3,53.3 		"/>
		<path class="st0" d="M344.9,56.9l1,1.9C345.8,58.4,344.8,56.3,344.9,56.9z"/>
		<path class="st0" d="M341.2,61c-0.5-1-1-1.5-0.6-0.5C340.8,60.6,341.3,61.3,341.2,61z"/>
		<polygon class="st0" points="326.4,66.3 326.1,65.7 326.3,66.3 		"/>
		<path class="st1" d="M46,91.9c-25.4,0-46-20.6-46-46s20.6-46,46-46s46,20.6,46,46S71.4,91.9,46,91.9z M46,3.9
			C22.7,3.9,3.9,22.7,3.9,46c0,23.3,18.8,42.1,42,42.1S88,69.3,88,46.1c0,0,0,0,0-0.1C88.1,22.8,69.2,3.9,46,3.9L46,3.9z"/>
		<rect x="11.6" y="11.9" class="st2" width="22.4" height="22.4"/>
		<rect x="56.5" y="11.9" class="st3" width="22.4" height="22.4"/>
		<rect x="11.6" y="34.3" class="st2" width="22.4" height="22.4"/>
		<rect x="34.1" y="34.3" class="st4" width="22.4" height="22.4"/>
		<rect x="11.6" y="56.8" class="st2" width="22.4" height="22.4"/>
		<rect x="34.1" y="56.8" class="st2" width="22.4" height="22.4"/>
		<rect x="56.5" y="56.8" class="st4" width="22.4" height="22.4"/>
		<path class="st5" d="M76.1,17.4c-0.5-0.4-1.2-0.5-2.1-0.3c-0.1,0-0.2,0-0.2,0c-4.2,1-8.4,2.1-12.6,3.1c-0.6,0.1-1.3,0.3-1.8,1.1
			c-0.2,0.2-0.3,0.5-0.3,0.8c-0.4,1.5,0.7,2.2,1.2,2.5l1.3,0.9c0.9,0.6,1.8,1.2,2.7,1.8L43.7,58l-13.8-9.2C29,48.2,28,48,27.1,48.2
			c-1,0.2-1.8,0.8-2.4,1.6L12.4,68.2c-1.1,1.7-0.7,4,1,5.2l0.8,0.6c0.8,0.6,1.8,0.8,2.8,0.6c1-0.2,1.8-0.8,2.4-1.6l9.7-14.4
			l13.8,9.2c0.8,0.6,1.8,0.8,2.8,0.6c1-0.2,1.8-0.8,2.4-1.6L71.2,32l3.9,2.6c0.5,0.3,1.1,0.7,1.9,0.6c0.3-0.1,0.7-0.2,1-0.5
			c0.2-0.2,0.4-0.4,0.5-0.6c0.5-0.8,0.5-1.6,0.4-2.3c-0.4-2.8-0.8-5.5-1.3-8.3l-0.6-4.2C77,18.4,76.6,17.8,76.1,17.4z"/>
		<path class="st2" d="M126.2,67.7c-1.2,0-3-0.1-5.4-0.2s-4.2-0.2-5.4-0.2c-1.7,0-4.3,0-7.7-0.1s-6-0.1-7.7-0.1
			c-0.7,0-1.2-0.2-1.3-0.7c0-1.3-0.3-3.3-0.6-5.8c-0.1-0.5-0.3-1.1-0.4-1.7c0-0.1,2.5-4,7.5-11.8s7.5-12,7.5-12.6
			c0-0.3-0.3-0.5-0.8-0.5c-1.4,0-3.6,0-6.5,0.1c-2.9,0.1-5,0.1-6.5,0.1c-0.4,0-0.7-0.2-0.7-0.7c0.1-1.5,0.3-3,0.7-4.4
			c0.4-1.6,0.6-3.1,0.7-4.7c0-0.3,0.3-0.5,0.8-0.5c2.8,0,7,0.1,12.7,0.2s9.9,0.2,12.7,0.2c0.4,0,0.8,0.3,0.8,0.7
			c0.4,2.3,0.6,4.7,0.6,7c-0.1,0.5-0.2,1-0.6,1.4c-1.3,1.9-4,5.9-8.1,12.3c-4.7,7.2-7,11-7,11.4c0,0.2,0.2,0.2,0.5,0.2
			c4.1,0,7.3-0.1,9.5-0.2c0.4,0,1.4-0.1,2.9-0.4c0.9-0.2,1.9-0.3,2.8-0.3c0.3,0,0.4,0.2,0.4,0.6c0,3.3-0.3,6.7-0.8,9.9
			C127,67.4,126.6,67.7,126.2,67.7C126.2,67.7,126.2,67.7,126.2,67.7z"/>
		<path class="st2" d="M160.3,50.6c0,2.1-0.7,3.2-2,3.5c-0.2,0-2.3,0.3-6.3,0.7c-2.4,0.3-6,0.6-10.8,0.9c0.3,1.4,1.3,2.5,2.6,3
			c1.3,0.6,2.6,0.9,4,0.9c1.9,0,3.8-0.5,5.5-1.5l2.3-1.5c0.4,0.2,1.1,1.3,2.1,3.1c0.7,1.1,1.2,2.3,1.5,3.6c0,0.1-0.1,0.4-0.4,0.7
			c-2.5,2.7-6.3,4-11.6,4c-4.9,0-8.8-1.4-11.7-4.3c-3-2.8-4.5-6.7-4.5-11.5c-0.2-4.2,1.3-8.3,4.1-11.5c2.9-3.1,7-4.8,11.2-4.7
			c3.8-0.1,7.4,1.5,10,4.3C158.8,43.1,160.3,46.8,160.3,50.6z M149.6,48.7c0-1.2-0.5-2.4-1.3-3.3c-0.8-0.9-2-1.4-3.2-1.4
			c-1.3,0-2.5,0.6-3.2,1.6c-0.8,1-1.2,2.2-1.2,3.5c-0.1,0.4,0.2,0.8,0.6,0.8c0.1,0,0.1,0,0.2,0c2.3-0.1,4.7-0.3,7-0.7
			C149.2,49.1,149.6,48.9,149.6,48.7z"/>
		<path class="st2" d="M194,66.3c0.1,0.5-0.3,0.9-0.7,1c0,0-0.1,0-0.1,0c-0.6,0.1-2,0.1-4.5,0.1c-1.6,0-3.2,0-4.8-0.2
			c-0.6-0.1-1-0.7-0.9-1.3c0-1,0-2.4,0.1-4.3s0.1-3.4,0.1-4.4c0-0.8,0-1.9-0.1-3.4s-0.1-2.6-0.1-3.4c0-2.8-1.2-4.2-3.6-4.2
			c-1,0.1-2,0.4-2.8,1c-1.1,0.8-1.7,1.5-1.7,2.3v16.5c0.1,0.5-0.3,1-0.9,1.1c0,0-0.1,0-0.1,0c-0.7,0.1-2.2,0.1-4.4,0.1
			c-1.6,0-3.1,0-4.6-0.2c-0.6,0-1-0.4-1-1c0-1.6,0-4,0-7.2s0-5.6,0-7.2c0.1-4-0.3-8-1.2-12c0-0.2-0.1-0.3-0.1-0.5
			c0-0.3,0.2-0.6,0.5-0.7c1.3-0.2,3-0.4,5.1-0.7c3.2-0.6,5.1-1,5.5-1c0.2,0,0.4,0.7,0.5,2.1s0.3,2.1,0.5,2.1c-0.2,0,0.9-0.7,3.3-2.1
			c1.9-1.3,4.1-2,6.4-2.1c2.3-0.1,4.7,0.5,6.6,1.8c1.9,1.3,3,3.5,2.9,5.9v9.8c0,1.3,0,3.3,0,6S194,65,194,66.3z"/>
		<path class="st2" d="M230.9,34.2c0,0.2-0.2,0.3-0.6,0.3c-1.5,0-3.9-0.1-7-0.4c-3.1-0.3-5.4-0.4-7-0.4c-1.1-0.1-2.3,0-3.4,0.2
			c-0.8,0.3-1.1,1.3-1.1,2.9c0,1.9,0.5,3,1.5,3.3c0.6,0.1,1.2,0.2,1.9,0.2c1.4,0,3.5-0.1,6.3-0.2c2.8-0.2,4.9-0.2,6.3-0.2
			c0.7,0,1,1.8,1,5.4c0,3.1-0.1,4.9-0.3,5.4c-0.1,0.4-0.5,0.6-0.8,0.5c-0.6-0.1-1.3-0.2-1.9-0.2c-2.2-0.2-5.5-0.3-9.9-0.3
			c-1.4,0-2.2,0-2.4,0c-1,0.2-1.6,0.6-1.6,1.3c0,2.9,0.1,6.2,0.4,10c0.2,3.4,0.3,4.9,0.3,4.6c0,0.5-0.6,0.8-1.9,0.9
			c-0.9-0.1-1.8-0.1-2.7,0c-2.5,0.1-4.9,0-7.4-0.4c-0.6-0.1-0.9-0.5-0.9-1c0-2.3,0.1-5.7,0.2-10.2c0.2-4.5,0.2-7.9,0.2-10.2
			c0-2.7-0.1-6-0.4-10.2c-0.4-6.3-0.6-9.7-0.6-10.1v-0.4c0-0.5,0.3-0.8,0.9-0.8c1.5,0,3.8,0,6.8,0.1c3.1,0.1,5.3,0.1,6.9,0.1
			s4.1-0.1,7.4-0.4s5.7-0.4,7.4-0.4c1,0,1.6,0.4,1.7,1.3s0,2.2,0.1,4c0.1,0.5,0.2,1.3,0.4,2.6C230.7,32.5,230.9,33.4,230.9,34.2z"/>
		<path class="st2" d="M263.7,52.1c0.2,4.2-1.4,8.3-4.3,11.3c-6.3,5.8-15.9,5.8-22.3,0.1c-2.9-2.9-4.5-6.9-4.4-11
			c0-4.7,1.4-8.6,4.2-11.5c2.8-2.9,6.5-4.4,11.3-4.4c4.2-0.2,8.2,1.4,11.2,4.3C262.3,43.9,263.9,48,263.7,52.1z M253.7,52.1
			c0-1.6-0.5-3.1-1.5-4.3c-0.9-1.2-2.4-1.9-3.9-1.9c-1.6,0-3,0.7-4,1.9c-2,2.5-2,6,0,8.5c1.8,2.2,5,2.5,7.2,0.8
			c0.3-0.2,0.5-0.5,0.8-0.8C253.2,55.2,253.7,53.7,253.7,52.1L253.7,52.1z"/>
		<path class="st2" d="M287.7,48.1c0,0.8-0.4,1.2-1.3,1.2c-0.4,0-1,0-1.7-0.1s-1.3-0.1-1.7-0.1c-1.2-0.1-2.4,0.2-3.5,0.8
			c-0.6,0.5-0.9,1.6-0.9,3.2c0,0.9,0,2.2,0,4s0,3.1,0,4c0,0.6,0,1.5,0.1,2.7s0.1,2,0.1,2.6s-0.3,0.8-1,0.8c-1,0.1-2.5,0.1-4.5,0.1
			c-1.9,0-3.5-0.1-4.6-0.2c-0.7-0.1-1-0.4-1-1c0-1.6,0-4.1,0-7.3s0-5.7,0-7.3c0.1-4-0.3-8-1.3-11.8c0-0.2-0.1-0.3-0.1-0.5
			c0-0.3,0.2-0.5,0.5-0.6c1.1-0.1,2.8-0.3,4.9-0.7c3.2-0.6,4.9-0.9,5-0.9c0.4,0,0.6,0.6,0.7,1.9s0.3,1.9,0.5,1.9
			c-0.3,0,0.5-0.5,2.5-1.6c1.7-1,3.7-1.6,5.6-1.6c1.1,0,1.7,0.2,1.7,0.7c0,0.8-0.1,1.7-0.2,2.5c-0.1,1.2-0.2,2-0.2,2.5s0,1.4,0,2.3
			C287.6,46.9,287.7,47.7,287.7,48.1z"/>
		<path class="st2" d="M311.7,58.2c0,0.9-0.1,1.9-0.2,2.8c-0.1,0.9-0.2,1.8-0.2,2.7c0,0.4,0,0.8-0.2,1.1c-0.3,0.3-0.6,0.5-1,0.7
			c-2.7,1.5-5.7,2.2-8.7,2.2c-5.9,0-8.8-2.3-8.8-6.8c0-1.3,0-3.4,0.1-6.1c0.1-2.7,0.1-4.7,0.1-6.1c0-0.9-0.5-1.3-1.6-1.3h-0.4h-0.4
			c-0.8,0-1.2-0.3-1.2-0.8c0-0.3,0-0.8,0.1-1.5s0.1-1.2,0.1-1.5s0-1.1-0.1-2s-0.1-1.5-0.1-2s0.6-0.6,2-0.7c0.7,0,1.1-0.2,1.2-0.6
			c0.1-1.2,0.2-2.4,0.1-3.7c-0.1-2.6-0.1-3.9-0.1-3.8c0-2.4,0.2-3.5,0.7-3.5c0.8,0,1.6,0.2,2.4,0.4c0.8,0.2,1.6,0.3,2.4,0.5
			c1,0.1,2.6,0.3,4.7,0.6c0.5,0,0.8,0.2,0.8,0.5c0,0.8-0.1,2-0.2,3.7c-0.1,1.7-0.2,2.9-0.2,3.7c0,1,0.3,1.5,0.9,1.5s1.8,0,3.2-0.1
			s2.5-0.1,3.3-0.1c0.5,0,0.7,0.2,0.7,0.5c0,0.5,0,1.2-0.1,2.1s-0.1,1.6-0.1,2.1s0,1.2,0,2.1s0,1.7,0,2.2s-0.3,0.6-0.9,0.6h-2l-2,0
			h-2.3c-0.3,0-0.5,0.5-0.5,1.3v2.2c0,1,0,1.7,0,2.2c-0.1,1.2,0.1,2.4,0.6,3.5c0.6,0.9,1.6,1.3,3.3,1.3c0.7,0,1.5-0.2,2.2-0.3
			c0.7-0.2,1.3-0.3,2-0.3c0.3-0.1,0.6,0.1,0.7,0.4C311.7,58,311.7,58.1,311.7,58.2z"/>
		<path class="st2" d="M342.9,50.6c0,2.1-0.7,3.2-2,3.5c-0.2,0-2.3,0.3-6.3,0.7c-2.4,0.3-6,0.6-10.8,0.9c0.3,1.4,1.3,2.5,2.6,3
			c1.3,0.6,2.6,0.9,4,0.9c1.9,0,3.8-0.5,5.5-1.5l2.3-1.5c0.4,0.2,1.1,1.3,2.2,3.1c0.7,1.1,1.2,2.3,1.5,3.6c0,0.1-0.1,0.4-0.5,0.7
			c-2.5,2.7-6.4,4-11.6,4c-4.9,0-8.8-1.4-11.7-4.3c-3-2.8-4.5-6.7-4.6-11.5c-0.2-4.2,1.3-8.3,4.1-11.5c2.9-3.1,7-4.8,11.2-4.7
			c3.8-0.1,7.4,1.5,10,4.3C341.5,43.1,343,46.7,342.9,50.6z M332.2,48.7c0-1.2-0.5-2.4-1.4-3.3c-0.8-0.9-2-1.4-3.2-1.4
			c-1.3,0-2.4,0.6-3.2,1.6c-0.8,1-1.2,2.2-1.2,3.5c0,0.4,0.2,0.8,0.7,0.8c0.1,0,0.1,0,0.2,0c2.3-0.1,4.7-0.3,7-0.7
			C331.9,49.1,332.2,48.9,332.2,48.7z"/>
	</g>
</g>
<g>
	<path class="st6" d="M52,39.4c2.6,0,4.8-2.1,4.8-4.8c0-2.6-2.1-4.8-4.8-4.8c-2.6,0-4.8,2.1-4.8,4.8C47.2,37.2,49.3,39.4,52,39.4z"
		/>
	<path class="st6" d="M64.5,55.1l-4.9-12.7c-0.4-1-1.4-1.7-2.5-1.7h-2.6c-0.7,0-1.4,0.3-1.9,0.8l1.2,9.1L52,52.3l-1.9-1.6l1.2-9.1
		c-0.5-0.5-1.1-0.8-1.9-0.8h-2.3l-15.3-3.3c-1.4-0.3-2.9,0.6-3.2,2.1c-0.3,1.4,0.6,2.9,2.1,3.2L46.3,46c0.2,0,0.3,0.1,0.5,0.1v12.4
		l-1,17.6c-0.1,1.5,1,2.7,2.5,2.8c0.1,0,0.1,0,0.2,0c1.4,0,2.6-1.1,2.7-2.5L52,61.2l0.9,15.1c0.1,1.4,1.3,2.5,2.7,2.5
		c0.1,0,0.1,0,0.2,0c1.5-0.1,2.6-1.4,2.5-2.8l-1-17.6V51l2.4,6.1c0.5,1.4,2.1,2.1,3.5,1.5C64.4,58.1,65,56.5,64.5,55.1z"/>
</g>
</svg>
